<svg aria-hidden="true" style="width:0;height:0;position:absolute;overflow:hidden" xmlns="http://www.w3.org/2000/svg"><defs><symbol id="icon-menu" viewBox="0 0 32 32"><path d="M2.666 8A1.335 1.335 0 0 1 4 6.666h24A1.33 1.33 0 0 1 29.333 8 1.333 1.333 0 0 1 28 9.334H4A1.335 1.335 0 0 1 2.666 8zm0 8.043A1.33 1.33 0 0 1 4 14.71h24a1.333 1.333 0 1 1 0 2.666H4a1.333 1.333 0 0 1-1.334-1.333zM4 22.752a1.337 1.337 0 0 0-1.334 1.333A1.33 1.33 0 0 0 4 25.418h24a1.333 1.333 0 1 0 0-2.666H4z"/></symbol><symbol id="icon-close" viewBox="0 0 30 32"><path d="m16.219 14.826 4.928-4.924a1.012 1.012 0 0 0-1.43-1.428l-4.928 4.873-4.958-4.954a1.013 1.013 0 0 0-1.43 1.428l4.948 5.005-4.846 4.782a1.002 1.002 0 0 0-.284 1.139 1.014 1.014 0 0 0 1.714.29l4.836-4.833 4.806 4.802a1.013 1.013 0 0 0 1.43-1.428l-4.786-4.751z"/><symbol id="icon-error" viewBox="0 0 32 32"><path d="m23.475 17.331-6.118-10.65c-.282-.486-.794-.794-1.357-.794s-1.075.307-1.357.794l-6.118 10.65c-.282.486-.282 1.101 0 1.587s.794.794 1.357.794h12.211a1.57 1.57 0 0 0 1.357-.794c.307-.486.307-1.075.026-1.587zm-.691 1.178c-.128.256-.384.384-.666.384H9.907a.765.765 0 0 1-.666-.384.869.869 0 0 1 0-.794l6.093-10.65c.128-.256.384-.384.666-.384s.538.154.666.384l6.093 10.65a.799.799 0 0 1 .026.793zM16.64 9.395c.179.179.256.41.256.666l-.384 5.402a.311.311 0 0 1-.307.307h-.41a.296.296 0 0 1-.307-.307l-.358-5.427c0-.256.077-.486.256-.666s.384-.282.64-.282c.205.026.435.128.614.307zm.179 7.527c0 .461-.358.819-.819.819s-.819-.358-.819-.819c0-.461.358-.819.819-.819s.819.358.819.819z"/></symbol></symbol></defs></svg>