<svg aria-hidden="true" style="position: absolute; width: 0; height: 0; overflow: hidden;" version="1.1" xmlns="http://www.w3.org/2000/svg" xmlns:xlink="http://www.w3.org/1999/xlink">
<defs>
<symbol id="arrow-left-desk" viewBox="0 0 37 32">
<path d="M2.667 21.333v-16c0-2.946 2.388-5.333 5.333-5.333h21.333c2.946 0 5.333 2.388 5.333 5.333v16c0 2.946-2.388 5.333-5.333 5.333h-21.333c-2.946 0-5.333-2.388-5.333-5.333z"></path>
<path d="M11.633 13.937l9.289 8.85c0.149 0.142 0.352 0.23 0.575 0.23s0.426-0.088 0.575-0.23l0.010-0.010c0.147-0.14 0.238-0.337 0.238-0.556s-0.091-0.416-0.238-0.555l-0-0-8.747-8.333 8.747-8.33c0.147-0.14 0.239-0.337 0.239-0.556s-0.092-0.416-0.238-0.556l-0.010-0.010c-0.149-0.142-0.352-0.23-0.575-0.23s-0.426 0.088-0.575 0.23l0-0-9.289 8.85c-0.159 0.152-0.258 0.366-0.258 0.603s0.099 0.451 0.258 0.603l0 0z"></path>
</symbol>
<symbol id="arrow-left-tab" viewBox="0 0 37 32">
<path d="M3.556 21.333v-17.778c0-1.964 1.592-3.556 3.556-3.556h23.111c1.964 0 3.556 1.592 3.556 3.556v17.778c0 1.964-1.592 3.556-3.556 3.556h-23.111c-1.964 0-3.556-1.592-3.556-3.556z"></path>
<path stroke-linejoin="miter" stroke-linecap="butt" stroke-miterlimit="4" stroke-width="0.8889" d="M12.231 12.686c-0.032-0.031-0.058-0.067-0.076-0.108l-0.001-0.002c-0.017-0.039-0.027-0.084-0.027-0.132s0.010-0.093 0.028-0.134l-0.001 0.002c0.019-0.043 0.045-0.079 0.076-0.109l0-0 8.669-8.26c0.060-0.057 0.141-0.092 0.23-0.092 0.088 0 0.168 0.034 0.227 0.089l0.013 0.013c0.052 0.050 0.084 0.119 0.084 0.196 0 0.038-0.008 0.074-0.022 0.107l0.001-0.002c-0.015 0.035-0.036 0.065-0.062 0.090l-0 0h-0.001l-8.501 8.097 8.501 8.1c0.052 0.050 0.084 0.12 0.084 0.197 0 0.039-0.008 0.075-0.022 0.109l0.001-0.002c-0.015 0.035-0.036 0.065-0.062 0.090l-0.013 0.013c-0.059 0.055-0.139 0.089-0.227 0.089-0.089 0-0.17-0.035-0.23-0.092l0 0-8.669-8.26z"></path>
</symbol>
<symbol id="arrow-right-desk" viewBox="0 0 37 32">
<path d="M34.667 5.333v16c0 2.946-2.388 5.333-5.333 5.333h-21.333c-2.946 0-5.333-2.388-5.333-5.333v-16c0-2.946 2.388-5.333 5.333-5.333h21.333c2.946 0 5.333 2.388 5.333 5.333z"></path>
<path d="M25.7 12.73l-9.289-8.85c-0.149-0.142-0.352-0.23-0.575-0.23s-0.426 0.088-0.575 0.23l-0.010 0.010c-0.147 0.14-0.238 0.337-0.238 0.556s0.091 0.416 0.238 0.555l0 0 8.747 8.333-8.747 8.331c-0.147 0.14-0.238 0.337-0.238 0.556s0.091 0.416 0.238 0.555l0.010 0.010c0.149 0.142 0.352 0.23 0.575 0.23s0.426-0.088 0.575-0.23l-0 0 9.289-8.85c0.159-0.152 0.258-0.366 0.258-0.603s-0.099-0.451-0.258-0.603l-0-0z"></path>
</symbol>
<symbol id="arrow-right-tab" viewBox="0 0 37 32">
<path d="M33.778 3.556v17.778c0 1.964-1.592 3.556-3.556 3.556h-23.111c-1.964 0-3.556-1.592-3.556-3.556v-17.778c0-1.964 1.592-3.556 3.556-3.556h23.111c1.964 0 3.556 1.592 3.556 3.556z"></path>
<path stroke-linejoin="miter" stroke-linecap="butt" stroke-miterlimit="4" stroke-width="0.8889" d="M25.102 12.203c0.032 0.031 0.058 0.067 0.076 0.108l0.001 0.002c0.017 0.039 0.027 0.084 0.027 0.132s-0.010 0.093-0.028 0.134l0.001-0.002c-0.019 0.043-0.045 0.079-0.076 0.109l-0 0-8.669 8.26c-0.060 0.057-0.141 0.092-0.23 0.092-0.088 0-0.168-0.034-0.227-0.089l-0.013-0.013c-0.051-0.050-0.083-0.119-0.083-0.196s0.032-0.146 0.083-0.196l0-0h0.001l8.501-8.097-8.501-8.1c-0.052-0.050-0.084-0.12-0.084-0.197 0-0.039 0.008-0.075 0.022-0.109l-0.001 0.002c0.015-0.035 0.036-0.065 0.062-0.090l0.013-0.013c0.059-0.055 0.139-0.089 0.227-0.089 0.089 0 0.17 0.035 0.23 0.092l-0-0 8.669 8.26z"></path>
</symbol>
<symbol id="chevron" viewBox="0 0 34 32">
<path d="M21.931 15.71c0.163 0.163 0.264 0.389 0.264 0.638s-0.101 0.474-0.264 0.638v0l-9.207 9.209c-0.163 0.164-0.389 0.265-0.639 0.265s-0.475-0.101-0.639-0.265v0l-0.425-0.425c-0.164-0.164-0.266-0.39-0.266-0.64s0.102-0.476 0.266-0.64l8.142-8.139-8.142-8.144c-0.164-0.163-0.265-0.389-0.265-0.639s0.101-0.475 0.265-0.639v0l0.425-0.425c0.164-0.164 0.39-0.266 0.64-0.266s0.476 0.102 0.64 0.266l9.205 9.207z"></path>
</symbol>
<symbol id="rocket" viewBox="0 0 32 32">
<path d="M7.233 13.633l3.534 1.5c0.4-0.8 0.827-1.588 1.283-2.366s0.939-1.522 1.45-2.234l-2.633-0.533-3.634 3.633zM12.367 16.333l4.433 4.434c1.383-0.632 2.553-1.289 3.663-2.027l-0.096 0.060c1.11-0.733 2.010-1.444 2.7-2.133 1.8-1.8 3.122-3.645 3.966-5.534s1.3-4.022 1.367-6.4c-2.378 0.067-4.511 0.523-6.4 1.367s-3.733 2.167-5.533 3.967c-0.69 0.689-1.4 1.589-2.134 2.7-0.678 1.014-1.334 2.183-1.899 3.404l-0.067 0.162zM20 13.133c-0.444-0.444-0.667-0.994-0.667-1.65 0-0.655 0.223-1.205 0.667-1.65s0.994-0.666 1.65-0.666 1.206 0.222 1.65 0.666c0.444 0.445 0.667 0.995 0.667 1.65s-0.223 1.206-0.667 1.65c-0.444 0.445-0.994 0.667-1.65 0.667s-1.206-0.222-1.65-0.667zM19.5 25.9l3.633-3.633-0.533-2.634c-0.711 0.512-1.456 0.995-2.233 1.45-0.778 0.456-1.567 0.884-2.367 1.284l1.5 3.533zM30.367 2.767c0.2 3.022-0.178 5.777-1.134 8.266-0.955 2.49-2.533 4.834-4.733 7.034l-0.067 0.066-0.066 0.067 0.733 3.667c0.067 0.333 0.050 0.655-0.050 0.966-0.1 0.312-0.272 0.59-0.517 0.834l-5.7 5.733-2.833-6.6-5.667-5.667-6.6-2.833 5.734-5.7c0.244-0.244 0.522-0.417 0.833-0.517s0.633-0.116 0.967-0.050l3.666 0.734c0.019-0.020 0.041-0.036 0.066-0.049l0.001-0.001c0.026-0.014 0.048-0.030 0.067-0.050l0-0c2.2-2.2 4.544-3.784 7.033-4.75s5.244-1.35 8.267-1.15zM5.967 21.167c0.777-0.778 1.727-1.173 2.85-1.184 1.122-0.010 2.072 0.373 2.85 1.15 0.777 0.778 1.16 1.728 1.15 2.85-0.011 1.123-0.406 2.073-1.184 2.85-0.577 0.578-1.472 1.056-2.683 1.434s-3.028 0.733-5.45 1.066c0.333-2.422 0.683-4.244 1.050-5.466s0.839-2.123 1.417-2.7zM7.367 22.6c-0.311 0.333-0.59 0.856-0.834 1.567s-0.455 1.622-0.633 2.733c1.111-0.178 2.022-0.389 2.733-0.633 0.711-0.245 1.234-0.523 1.567-0.834 0.422-0.377 0.639-0.85 0.65-1.416 0.001-0.018 0.001-0.040 0.001-0.061 0-0.555-0.223-1.057-0.584-1.423l0 0c-0.366-0.361-0.869-0.584-1.423-0.584-0.021 0-0.043 0-0.064 0.001l0.003-0c-0.565 0.001-1.071 0.252-1.414 0.648l-0.002 0.002z"></path>
</symbol>
<symbol id="stars" viewBox="0 0 202 32">
<path fill="#ffe550" style="fill: var(--color2, #ffe550)" d="M15.42 1.038c0.584-1.384 2.576-1.384 3.16 0l3.448 8.162c0.246 0.582 0.804 0.98 1.444 1.032l8.952 0.706c1.516 0.12 2.132 1.982 0.976 2.958l-6.82 5.752c-0.367 0.308-0.598 0.767-0.598 1.281 0 0.138 0.017 0.272 0.048 0.401l-0.002-0.011 2.084 8.6c0.352 1.456-1.258 2.608-2.556 1.828l-7.664-4.61c-0.255-0.155-0.563-0.247-0.892-0.247s-0.637 0.092-0.9 0.251l0.008-0.004-7.664 4.61c-1.3 0.78-2.908-0.372-2.556-1.828l2.084-8.6c0.029-0.117 0.046-0.251 0.046-0.389 0-0.513-0.231-0.972-0.596-1.278l-0.003-0.002-6.82-5.75c-1.156-0.976-0.54-2.84 0.976-2.96l8.952-0.704c0.649-0.050 1.193-0.456 1.44-1.021l0.004-0.011 3.448-8.164zM57.42 1.038c0.584-1.384 2.576-1.384 3.16 0l3.448 8.162c0.246 0.582 0.804 0.98 1.444 1.032l8.952 0.706c1.516 0.12 2.132 1.982 0.976 2.958l-6.82 5.752c-0.367 0.308-0.598 0.767-0.598 1.281 0 0.138 0.017 0.272 0.048 0.401l-0.002-0.011 2.084 8.6c0.352 1.456-1.258 2.608-2.556 1.828l-7.664-4.61c-0.255-0.155-0.563-0.247-0.892-0.247s-0.637 0.092-0.9 0.251l0.008-0.004-7.664 4.61c-1.3 0.78-2.908-0.372-2.556-1.828l2.084-8.6c0.029-0.117 0.046-0.252 0.046-0.39 0-0.513-0.231-0.972-0.596-1.278l-0.003-0.002-6.82-5.75c-1.156-0.976-0.54-2.84 0.976-2.96l8.952-0.704c0.649-0.050 1.193-0.456 1.44-1.021l0.004-0.011 3.448-8.164zM99.42 1.038c0.584-1.384 2.576-1.384 3.16 0l3.448 8.162c0.246 0.582 0.804 0.98 1.444 1.032l8.952 0.706c1.516 0.12 2.132 1.982 0.976 2.958l-6.82 5.752c-0.367 0.308-0.598 0.767-0.598 1.281 0 0.138 0.017 0.272 0.048 0.401l-0.002-0.011 2.084 8.6c0.352 1.456-1.258 2.608-2.556 1.828l-7.664-4.61c-0.255-0.155-0.563-0.247-0.892-0.247s-0.637 0.092-0.9 0.251l0.008-0.004-7.664 4.61c-1.3 0.78-2.908-0.372-2.556-1.828l2.084-8.6c0.030-0.118 0.047-0.253 0.047-0.392 0-0.512-0.231-0.97-0.594-1.276l-0.003-0.002-6.822-5.75c-1.158-0.976-0.542-2.84 0.974-2.96l8.952-0.704c0.649-0.050 1.193-0.456 1.44-1.021l0.004-0.011 3.45-8.164zM141.42 1.038c0.584-1.384 2.576-1.384 3.16 0l3.448 8.162c0.248 0.582 0.804 0.98 1.444 1.032l8.952 0.706c1.516 0.12 2.132 1.982 0.976 2.958l-6.82 5.752c-0.367 0.308-0.598 0.767-0.598 1.281 0 0.138 0.017 0.272 0.048 0.401l-0.002-0.011 2.084 8.6c0.352 1.456-1.258 2.608-2.556 1.828l-7.664-4.61c-0.255-0.155-0.563-0.247-0.892-0.247s-0.637 0.092-0.9 0.251l0.008-0.004-7.664 4.61c-1.3 0.78-2.908-0.372-2.556-1.828l2.084-8.6c0.029-0.117 0.046-0.252 0.046-0.39 0-0.513-0.232-0.972-0.596-1.278l-0.003-0.002-6.82-5.75c-1.156-0.976-0.54-2.84 0.976-2.96l8.952-0.704c0.649-0.050 1.193-0.456 1.44-1.021l0.004-0.011 3.448-8.164zM183.42 1.038c0.584-1.384 2.576-1.384 3.16 0l3.448 8.162c0.248 0.582 0.804 0.98 1.444 1.032l8.952 0.706c1.516 0.12 2.132 1.982 0.976 2.958l-6.82 5.752c-0.367 0.308-0.598 0.767-0.598 1.281 0 0.138 0.017 0.272 0.048 0.401l-0.002-0.011 2.084 8.6c0.352 1.456-1.258 2.608-2.556 1.828l-7.664-4.61c-0.255-0.155-0.563-0.247-0.892-0.247s-0.637 0.092-0.9 0.251l0.008-0.004-7.664 4.61c-1.3 0.78-2.908-0.372-2.556-1.828l2.084-8.6c0.029-0.117 0.046-0.252 0.046-0.39 0-0.513-0.232-0.972-0.596-1.278l-0.003-0.002-6.82-5.75c-1.156-0.976-0.54-2.84 0.976-2.96l8.952-0.704c0.649-0.050 1.193-0.456 1.44-1.021l0.004-0.011 3.448-8.164z"></path>
</symbol>
<symbol id="touch" viewBox="0 0 32 32">
<path d="M15.5 1.333c2.023 0 3.75 0.706 5.184 2.117 1.433 1.411 2.15 3.128 2.15 5.15 0 1.156-0.25 2.244-0.75 3.267-0.515 1.040-1.229 1.91-2.1 2.588l-0.017 0.012h-1.133v-1.667c0.627-0.495 1.128-1.12 1.47-1.836l0.013-0.031c0.326-0.677 0.517-1.471 0.517-2.31 0-0.008-0-0.016-0-0.024v0.001c0-1.467-0.523-2.711-1.567-3.733s-2.3-1.534-3.767-1.534c-1.466 0-2.722 0.511-3.766 1.534s-1.567 2.266-1.567 3.733c0 0.822 0.172 1.6 0.517 2.333 0.355 0.747 0.856 1.372 1.472 1.859l0.011 0.008v2.4c-1.227-0.632-2.223-1.564-2.915-2.701l-0.018-0.032c-0.67-1.086-1.067-2.403-1.067-3.812 0-0.019 0-0.039 0-0.058l-0 0.003c0-2.022 0.717-3.739 2.15-5.15s3.161-2.117 5.183-2.117zM14.234 29.333c-0.378 0-0.734-0.072-1.067-0.216-0.337-0.145-0.624-0.342-0.867-0.584l-6.866-6.866 1.866-1.934c0.311-0.31 0.661-0.55 1.050-0.716 0.214-0.095 0.464-0.151 0.727-0.151 0.174 0 0.343 0.024 0.503 0.070l-0.013-0.003 2.6 0.6v-10.866c0-0.934 0.322-1.723 0.967-2.367 0.644-0.644 1.433-0.967 2.366-0.967 0.934 0 1.723 0.323 2.367 0.967s0.967 1.433 0.967 2.367v5.733h0.866c0.111 0 0.211 0.022 0.3 0.067s0.19 0.088 0.3 0.133l4.934 2.4c0.533 0.244 0.927 0.639 1.183 1.183 0.255 0.545 0.328 1.106 0.217 1.684l-1.2 7.266c-0.106 0.647-0.446 1.2-0.929 1.58l-0.005 0.004c-0.462 0.383-1.061 0.616-1.714 0.616-0.007 0-0.013-0-0.020-0h-8.532zM13.967 27.333h9.367l1.433-8.3-6.1-3.033h-1.833v-7.333c0-0.4-0.123-0.723-0.367-0.967s-0.567-0.367-0.967-0.367-0.722 0.123-0.966 0.367c-0.245 0.244-0.367 0.567-0.367 0.967v13.3l-5.133-1.1-0.767 0.766 5.7 5.7zM23.334 27.333v0z"></path>
</symbol>
<symbol id="icon-menu" viewBox="0 0 32 32">
<path  d="M2.666 8c0-0.354 0.14-0.693 0.391-0.943s0.589-0.391 0.943-0.391h24c0.354 0 0.693 0.14 0.943 0.391s0.39 0.589 0.39 0.943c0 0.354-0.14 0.693-0.39 0.943s-0.589 0.391-0.943 0.391h-24c-0.354 0-0.693-0.14-0.943-0.391s-0.391-0.589-0.391-0.943zM2.666 16.043c0-0.354 0.14-0.693 0.391-0.943s0.589-0.39 0.943-0.39h24c0.354 0 0.693 0.14 0.943 0.39s0.39 0.589 0.39 0.943c0 0.354-0.14 0.693-0.39 0.943s-0.589 0.39-0.943 0.39h-24c-0.354 0-0.693-0.14-0.943-0.39s-0.391-0.589-0.391-0.943zM4 22.752c-0.354 0-0.693 0.141-0.943 0.39s-0.391 0.589-0.391 0.943 0.14 0.693 0.391 0.943c0.25 0.25 0.589 0.39 0.943 0.39h24c0.354 0 0.693-0.14 0.943-0.39s0.39-0.589 0.39-0.943c0-0.354-0.14-0.693-0.39-0.943s-0.589-0.39-0.943-0.39h-24z"></path>
</symbol>
<symbol id="icon-close" viewBox="0 0 30 32">
<path d="M16.219 14.826l4.928-4.924c0.166-0.194 0.253-0.443 0.243-0.698s-0.116-0.497-0.296-0.677c-0.181-0.18-0.423-0.286-0.678-0.296s-0.505 0.077-0.699 0.243l-4.928 4.873-4.958-4.954c-0.194-0.166-0.443-0.253-0.699-0.243s-0.497 0.116-0.678 0.296c-0.181 0.18-0.286 0.422-0.296 0.677s0.077 0.504 0.243 0.698l4.948 5.005-4.846 4.782c-0.106 0.091-0.192 0.203-0.253 0.328s-0.095 0.263-0.1 0.402 0.018 0.279 0.069 0.409c0.051 0.13 0.128 0.248 0.227 0.347s0.217 0.176 0.347 0.227c0.13 0.051 0.269 0.074 0.409 0.069s0.277-0.040 0.402-0.1c0.126-0.061 0.238-0.147 0.329-0.253l4.836-4.833 4.806 4.802c0.194 0.166 0.443 0.253 0.699 0.243s0.497-0.116 0.678-0.296c0.181-0.18 0.286-0.422 0.296-0.677s-0.077-0.504-0.243-0.698l-4.786-4.751z"></path>
</symbol>
</defs>
</svg>
