<svg aria-hidden="true" style="position: absolute; width: 0; height: 0; overflow: hidden;" version="1.1" xmlns="http://www.w3.org/2000/svg" xmlns:xlink="http://www.w3.org/1999/xlink">
<defs>
<symbol id="icon-error" viewBox="0 0 32 32">
<path d="M23.475 17.331l-6.118-10.65c-0.282-0.486-0.794-0.794-1.357-0.794s-1.075 0.307-1.357 0.794l-6.118 10.65c-0.282 0.486-0.282 1.101 0 1.587s0.794 0.794 1.357 0.794h12.211c0.563 0 1.075-0.307 1.357-0.794 0.307-0.486 0.307-1.075 0.026-1.587zM22.784 18.509c-0.128 0.256-0.384 0.384-0.666 0.384l-12.211 0c-0.282 0-0.538-0.154-0.666-0.384-0.128-0.256-0.128-0.538 0-0.794l6.093-10.65c0.128-0.256 0.384-0.384 0.666-0.384s0.538 0.154 0.666 0.384l6.093 10.65c0.154 0.256 0.154 0.563 0.026 0.793zM16.64 9.395c0.179 0.179 0.256 0.41 0.256 0.666l-0.384 5.402c0 0.179-0.154 0.307-0.307 0.307h-0.41c-0.179 0-0.307-0.128-0.307-0.307l-0.358-5.427c0-0.256 0.077-0.486 0.256-0.666s0.384-0.282 0.64-0.282c0.205 0.026 0.435 0.128 0.614 0.307zM16.819 16.922c0 0.461-0.358 0.819-0.819 0.819s-0.819-0.358-0.819-0.819c0-0.461 0.358-0.819 0.819-0.819s0.819 0.358 0.819 0.819z"></path>
</symbol>
</defs>
</svg>