<svg aria-hidden="true" style="position: absolute; width: 0; height: 0; overflow: hidden;" version="1.1" xmlns="http://www.w3.org/2000/svg" xmlns:xlink="http://www.w3.org/1999/xlink">
<defs>
<symbol id="icon-menu" viewBox="0 0 32 32">
<path  d="M2.666 8c0-0.354 0.14-0.693 0.391-0.943s0.589-0.391 0.943-0.391h24c0.354 0 0.693 0.14 0.943 0.391s0.39 0.589 0.39 0.943c0 0.354-0.14 0.693-0.39 0.943s-0.589 0.391-0.943 0.391h-24c-0.354 0-0.693-0.14-0.943-0.391s-0.391-0.589-0.391-0.943zM2.666 16.043c0-0.354 0.14-0.693 0.391-0.943s0.589-0.39 0.943-0.39h24c0.354 0 0.693 0.14 0.943 0.39s0.39 0.589 0.39 0.943c0 0.354-0.14 0.693-0.39 0.943s-0.589 0.39-0.943 0.39h-24c-0.354 0-0.693-0.14-0.943-0.39s-0.391-0.589-0.391-0.943zM4 22.752c-0.354 0-0.693 0.141-0.943 0.39s-0.391 0.589-0.391 0.943 0.14 0.693 0.391 0.943c0.25 0.25 0.589 0.39 0.943 0.39h24c0.354 0 0.693-0.14 0.943-0.39s0.39-0.589 0.39-0.943c0-0.354-0.14-0.693-0.39-0.943s-0.589-0.39-0.943-0.39h-24z"></path>
</symbol>
<symbol id="icon-close" viewBox="0 0 30 32">
<path d="M16.219 14.826l4.928-4.924c0.166-0.194 0.253-0.443 0.243-0.698s-0.116-0.497-0.296-0.677c-0.181-0.18-0.423-0.286-0.678-0.296s-0.505 0.077-0.699 0.243l-4.928 4.873-4.958-4.954c-0.194-0.166-0.443-0.253-0.699-0.243s-0.497 0.116-0.678 0.296c-0.181 0.18-0.286 0.422-0.296 0.677s0.077 0.504 0.243 0.698l4.948 5.005-4.846 4.782c-0.106 0.091-0.192 0.203-0.253 0.328s-0.095 0.263-0.1 0.402 0.018 0.279 0.069 0.409c0.051 0.13 0.128 0.248 0.227 0.347s0.217 0.176 0.347 0.227c0.13 0.051 0.269 0.074 0.409 0.069s0.277-0.040 0.402-0.1c0.126-0.061 0.238-0.147 0.329-0.253l4.836-4.833 4.806 4.802c0.194 0.166 0.443 0.253 0.699 0.243s0.497-0.116 0.678-0.296c0.181-0.18 0.286-0.422 0.296-0.677s-0.077-0.504-0.243-0.698l-4.786-4.751z"></path>

<symbol id="icon-error" viewBox="0 0 32 32">
<path d="M23.475 17.331l-6.118-10.65c-0.282-0.486-0.794-0.794-1.357-0.794s-1.075 0.307-1.357 0.794l-6.118 10.65c-0.282 0.486-0.282 1.101 0 1.587s0.794 0.794 1.357 0.794h12.211c0.563 0 1.075-0.307 1.357-0.794 0.307-0.486 0.307-1.075 0.026-1.587zM22.784 18.509c-0.128 0.256-0.384 0.384-0.666 0.384l-12.211 0c-0.282 0-0.538-0.154-0.666-0.384-0.128-0.256-0.128-0.538 0-0.794l6.093-10.65c0.128-0.256 0.384-0.384 0.666-0.384s0.538 0.154 0.666 0.384l6.093 10.65c0.154 0.256 0.154 0.563 0.026 0.793zM16.64 9.395c0.179 0.179 0.256 0.41 0.256 0.666l-0.384 5.402c0 0.179-0.154 0.307-0.307 0.307h-0.41c-0.179 0-0.307-0.128-0.307-0.307l-0.358-5.427c0-0.256 0.077-0.486 0.256-0.666s0.384-0.282 0.64-0.282c0.205 0.026 0.435 0.128 0.614 0.307zM16.819 16.922c0 0.461-0.358 0.819-0.819 0.819s-0.819-0.358-0.819-0.819c0-0.461 0.358-0.819 0.819-0.819s0.819 0.358 0.819 0.819z"></path>

</symbol>
</defs>
</svg>